<svg width="165" height="43" viewBox="0 0 165 43" fill="none" xmlns="http://www.w3.org/2000/svg">
<path d="M2 18.6594C7.87978 18.6594 18.9001 2 22.4546 2C26.0091 2 36.7887 18.6594 42.4645 18.6594" stroke="#33373C" stroke-opacity="0.8" stroke-width="3" stroke-linecap="round"/>
<path d="M82.3569 18.6594C88.2367 18.6594 99.257 2 102.812 2C106.366 2 117.146 18.6594 122.821 18.6594" stroke="#33373C" stroke-opacity="0.8" stroke-width="3" stroke-linecap="round"/>
<path d="M42.1785 18.6594C48.0582 18.6594 59.0786 2 62.6331 2C66.1875 2 76.9671 18.6594 82.643 18.6594" stroke="#33373C" stroke-opacity="0.8" stroke-width="3" stroke-linecap="round"/>
<path d="M122.535 18.6594C128.415 18.6594 139.436 2 142.99 2C146.544 2 157.324 18.6594 163 18.6594" stroke="#33373C" stroke-opacity="0.8" stroke-width="3" stroke-linecap="round"/>
<path d="M2 41.1985C7.87978 41.1985 18.9001 24.5391 22.4546 24.5391C26.0091 24.5391 36.7887 41.1985 42.4645 41.1985" stroke="#33373C" stroke-opacity="0.8" stroke-width="3" stroke-linecap="round"/>
<path d="M82.3569 41.1985C88.2367 41.1985 99.257 24.5391 102.812 24.5391C106.366 24.5391 117.146 41.1985 122.821 41.1985" stroke="#33373C" stroke-opacity="0.8" stroke-width="3" stroke-linecap="round"/>
<path d="M42.1785 41.1985C48.0582 41.1985 59.0786 24.5391 62.6331 24.5391C66.1875 24.5391 76.9671 41.1985 82.643 41.1985" stroke="#33373C" stroke-opacity="0.8" stroke-width="3" stroke-linecap="round"/>
<path d="M122.535 41.1985C128.415 41.1985 139.436 24.5391 142.99 24.5391C146.544 24.5391 157.324 41.1985 163 41.1985" stroke="#33373C" stroke-opacity="0.8" stroke-width="3" stroke-linecap="round"/>
</svg>
