<svg width="30" height="30" viewBox="0 0 30 30" fill="none" xmlns="http://www.w3.org/2000/svg">
<circle cx="15" cy="15" r="15" fill="#FF87A4"/>
<path fill-rule="evenodd" clip-rule="evenodd" d="M24.0485 17.2057L14.9825 24.375L5.91642 17.2057C5.79488 17.1084 5.70472 16.9718 5.65885 16.8154C5.61298 16.659 5.61375 16.4908 5.66104 16.335L6.69959 12.8336L8.7767 5.87734C8.79844 5.81728 8.83327 5.76386 8.8782 5.72169C8.92312 5.67953 8.9768 5.64988 9.03459 5.63529C9.09239 5.62071 9.15258 5.62163 9.20998 5.63798C9.26737 5.65433 9.32026 5.68561 9.36407 5.72914C9.40781 5.77514 9.44004 5.83253 9.45771 5.89587L11.5348 12.8336H18.4301L20.5072 5.87734C20.529 5.81728 20.5638 5.76386 20.6087 5.72169C20.6537 5.67953 20.7073 5.64988 20.7651 5.63529C20.8229 5.62071 20.8831 5.62163 20.9405 5.63798C20.9979 5.65433 21.0508 5.68561 21.0946 5.72914C21.1384 5.77514 21.1706 5.83253 21.1883 5.89587L23.2654 12.8522L24.3465 16.335C24.3895 16.4957 24.3837 16.6672 24.3301 16.824C24.2764 16.9809 24.1777 17.1147 24.0485 17.2057Z" fill="#2B2F33" stroke="#FF87A4" stroke-width="0.5" stroke-linecap="round" stroke-linejoin="round"/>
</svg>
