<svg width="97" height="31" viewBox="0 0 97 31" fill="none" xmlns="http://www.w3.org/2000/svg">
<path d="M13.43 23.635L0.13 14.815V11.945L13.43 3.125V6.87L3.525 13.31V13.45L13.43 19.89V23.635ZM83.5153 23.635V19.89L93.4203 13.45V13.31L83.5153 6.87V3.125L96.8153 11.945V14.815L83.5153 23.635Z" fill="#D0D0D0"/>
<path d="M19.2613 25V2.11H23.7413L26.4713 11.035L27.4163 14.465H27.5563L28.4663 11.035L31.2313 2.11H35.7113V25H32.1413V15.76C32.1413 15.1533 32.153 14.4417 32.1763 13.625C32.223 12.785 32.2813 11.91 32.3513 11C32.4213 10.09 32.4913 9.23833 32.5613 8.445C32.6313 7.62833 32.6897 6.94 32.7363 6.38H32.6313L31.0913 11.7L28.5713 18.945H26.2613L23.7763 11.7L22.2713 6.38H22.1663C22.2363 6.94 22.3063 7.62833 22.3763 8.445C22.4463 9.23833 22.5047 10.09 22.5513 11C22.6213 11.91 22.668 12.785 22.6913 13.625C22.738 14.4417 22.7613 15.1533 22.7613 15.76V25H19.2613ZM61.969 30.6L73.484 0.149999H76.949L65.434 30.6H61.969Z" fill="white"/>
<path d="M46.4427 25V5.505H39.2327V2.11H57.7127V5.505H50.5027V25H46.4427Z" fill="#FF87A4"/>
</svg>
